<mxfile host="app.diagrams.net" modified="2022-07-26T07:13:07.018Z" agent="5.0 (Windows NT 10.0; Win64; x64) AppleWebKit/537.36 (KHTML, like Gecko) Chrome/103.0.0.0 Safari/537.36" etag="DJltcdMzLRVR1lutE_z-" version="20.2.0" type="github">
  <diagram id="R2lEEEUBdFMjLlhIrx00" name="Page-1">
    <mxGraphModel dx="4587" dy="785" grid="1" gridSize="10" guides="1" tooltips="1" connect="1" arrows="1" fold="1" page="1" pageScale="1" pageWidth="3300" pageHeight="2339" math="0" shadow="0" extFonts="Permanent Marker^https://fonts.googleapis.com/css?family=Permanent+Marker">
      <root>
        <mxCell id="0" />
        <mxCell id="1" parent="0" />
        <mxCell id="xOUELPZPSv9uPNJU-jqq-73" style="edgeStyle=orthogonalEdgeStyle;rounded=0;orthogonalLoop=1;jettySize=auto;html=1;exitX=0.5;exitY=1;exitDx=0;exitDy=0;" edge="1" parent="1" source="xOUELPZPSv9uPNJU-jqq-3" target="xOUELPZPSv9uPNJU-jqq-6">
          <mxGeometry relative="1" as="geometry" />
        </mxCell>
        <mxCell id="xOUELPZPSv9uPNJU-jqq-74" style="edgeStyle=orthogonalEdgeStyle;rounded=0;orthogonalLoop=1;jettySize=auto;html=1;exitX=1;exitY=0.5;exitDx=0;exitDy=0;" edge="1" parent="1" source="xOUELPZPSv9uPNJU-jqq-3" target="xOUELPZPSv9uPNJU-jqq-4">
          <mxGeometry relative="1" as="geometry" />
        </mxCell>
        <mxCell id="xOUELPZPSv9uPNJU-jqq-3" value="admin" style="rounded=1;whiteSpace=wrap;html=1;" vertex="1" parent="1">
          <mxGeometry x="-50" y="590" width="120" height="40" as="geometry" />
        </mxCell>
        <mxCell id="xOUELPZPSv9uPNJU-jqq-75" style="edgeStyle=orthogonalEdgeStyle;rounded=0;orthogonalLoop=1;jettySize=auto;html=1;exitX=0.5;exitY=1;exitDx=0;exitDy=0;" edge="1" parent="1" source="xOUELPZPSv9uPNJU-jqq-4" target="xOUELPZPSv9uPNJU-jqq-7">
          <mxGeometry relative="1" as="geometry" />
        </mxCell>
        <mxCell id="xOUELPZPSv9uPNJU-jqq-4" value="user" style="rounded=1;whiteSpace=wrap;html=1;" vertex="1" parent="1">
          <mxGeometry x="305" y="590" width="120" height="40" as="geometry" />
        </mxCell>
        <mxCell id="xOUELPZPSv9uPNJU-jqq-5" value="employee" style="rounded=1;whiteSpace=wrap;html=1;" vertex="1" parent="1">
          <mxGeometry x="640" y="590" width="120" height="40" as="geometry" />
        </mxCell>
        <mxCell id="xOUELPZPSv9uPNJU-jqq-72" style="edgeStyle=orthogonalEdgeStyle;rounded=0;orthogonalLoop=1;jettySize=auto;html=1;exitX=1;exitY=0.5;exitDx=0;exitDy=0;entryX=0;entryY=0.5;entryDx=0;entryDy=0;" edge="1" parent="1" source="xOUELPZPSv9uPNJU-jqq-6" target="xOUELPZPSv9uPNJU-jqq-7">
          <mxGeometry relative="1" as="geometry" />
        </mxCell>
        <mxCell id="xOUELPZPSv9uPNJU-jqq-106" style="edgeStyle=orthogonalEdgeStyle;rounded=0;orthogonalLoop=1;jettySize=auto;html=1;exitX=0;exitY=0.5;exitDx=0;exitDy=0;entryX=0.581;entryY=1.101;entryDx=0;entryDy=0;entryPerimeter=0;" edge="1" parent="1" source="xOUELPZPSv9uPNJU-jqq-6" target="xOUELPZPSv9uPNJU-jqq-5">
          <mxGeometry relative="1" as="geometry" />
        </mxCell>
        <mxCell id="xOUELPZPSv9uPNJU-jqq-6" value="inventory" style="rounded=1;whiteSpace=wrap;html=1;" vertex="1" parent="1">
          <mxGeometry x="-55" y="860" width="120" height="40" as="geometry" />
        </mxCell>
        <mxCell id="xOUELPZPSv9uPNJU-jqq-85" style="edgeStyle=orthogonalEdgeStyle;rounded=0;orthogonalLoop=1;jettySize=auto;html=1;exitX=1;exitY=0.5;exitDx=0;exitDy=0;entryX=0;entryY=0.5;entryDx=0;entryDy=0;" edge="1" parent="1" source="xOUELPZPSv9uPNJU-jqq-7" target="xOUELPZPSv9uPNJU-jqq-11">
          <mxGeometry relative="1" as="geometry" />
        </mxCell>
        <mxCell id="xOUELPZPSv9uPNJU-jqq-7" value="SW characteristics" style="rounded=1;whiteSpace=wrap;html=1;" vertex="1" parent="1">
          <mxGeometry x="295" y="860" width="120" height="40" as="geometry" />
        </mxCell>
        <mxCell id="xOUELPZPSv9uPNJU-jqq-8" value="feedback" style="rounded=1;whiteSpace=wrap;html=1;" vertex="1" parent="1">
          <mxGeometry x="650" y="1070" width="120" height="40" as="geometry" />
        </mxCell>
        <mxCell id="xOUELPZPSv9uPNJU-jqq-86" style="edgeStyle=orthogonalEdgeStyle;rounded=0;orthogonalLoop=1;jettySize=auto;html=1;exitX=0;exitY=0.5;exitDx=0;exitDy=0;entryX=1;entryY=0.75;entryDx=0;entryDy=0;" edge="1" parent="1" source="xOUELPZPSv9uPNJU-jqq-9" target="xOUELPZPSv9uPNJU-jqq-6">
          <mxGeometry relative="1" as="geometry" />
        </mxCell>
        <mxCell id="xOUELPZPSv9uPNJU-jqq-9" value="collection centres" style="rounded=1;whiteSpace=wrap;html=1;" vertex="1" parent="1">
          <mxGeometry x="312.5" y="1070" width="120" height="40" as="geometry" />
        </mxCell>
        <mxCell id="xOUELPZPSv9uPNJU-jqq-66" style="edgeStyle=orthogonalEdgeStyle;rounded=0;orthogonalLoop=1;jettySize=auto;html=1;exitX=0.5;exitY=0;exitDx=0;exitDy=0;entryX=0.5;entryY=1;entryDx=0;entryDy=0;" edge="1" parent="1" source="xOUELPZPSv9uPNJU-jqq-10" target="xOUELPZPSv9uPNJU-jqq-6">
          <mxGeometry relative="1" as="geometry" />
        </mxCell>
        <mxCell id="xOUELPZPSv9uPNJU-jqq-10" value="projects" style="rounded=1;whiteSpace=wrap;html=1;" vertex="1" parent="1">
          <mxGeometry x="-55" y="1070" width="120" height="40" as="geometry" />
        </mxCell>
        <mxCell id="xOUELPZPSv9uPNJU-jqq-93" style="edgeStyle=orthogonalEdgeStyle;rounded=0;orthogonalLoop=1;jettySize=auto;html=1;exitX=0.5;exitY=1;exitDx=0;exitDy=0;" edge="1" parent="1" source="xOUELPZPSv9uPNJU-jqq-11" target="xOUELPZPSv9uPNJU-jqq-8">
          <mxGeometry relative="1" as="geometry" />
        </mxCell>
        <mxCell id="xOUELPZPSv9uPNJU-jqq-107" style="edgeStyle=orthogonalEdgeStyle;rounded=0;orthogonalLoop=1;jettySize=auto;html=1;exitX=0.5;exitY=0;exitDx=0;exitDy=0;entryX=0.75;entryY=1;entryDx=0;entryDy=0;" edge="1" parent="1" source="xOUELPZPSv9uPNJU-jqq-11" target="xOUELPZPSv9uPNJU-jqq-4">
          <mxGeometry relative="1" as="geometry" />
        </mxCell>
        <mxCell id="xOUELPZPSv9uPNJU-jqq-11" value="fines levied" style="rounded=1;whiteSpace=wrap;html=1;" vertex="1" parent="1">
          <mxGeometry x="640" y="860" width="120" height="40" as="geometry" />
        </mxCell>
        <mxCell id="xOUELPZPSv9uPNJU-jqq-12" value="admin_id" style="ellipse;whiteSpace=wrap;html=1;" vertex="1" parent="1">
          <mxGeometry x="-110" y="540" width="60" height="40" as="geometry" />
        </mxCell>
        <mxCell id="xOUELPZPSv9uPNJU-jqq-13" value="admin_name" style="ellipse;whiteSpace=wrap;html=1;" vertex="1" parent="1">
          <mxGeometry x="80" y="530" width="80" height="40" as="geometry" />
        </mxCell>
        <mxCell id="xOUELPZPSv9uPNJU-jqq-14" value="admin_designation" style="ellipse;whiteSpace=wrap;html=1;" vertex="1" parent="1">
          <mxGeometry x="-45" y="530" width="110" height="40" as="geometry" />
        </mxCell>
        <mxCell id="xOUELPZPSv9uPNJU-jqq-18" value="" style="endArrow=classic;html=1;rounded=0;exitX=0.5;exitY=1;exitDx=0;exitDy=0;entryX=0.006;entryY=0.083;entryDx=0;entryDy=0;entryPerimeter=0;" edge="1" parent="1" source="xOUELPZPSv9uPNJU-jqq-12" target="xOUELPZPSv9uPNJU-jqq-3">
          <mxGeometry width="50" height="50" relative="1" as="geometry">
            <mxPoint x="130" y="600" as="sourcePoint" />
            <mxPoint x="180" y="550" as="targetPoint" />
          </mxGeometry>
        </mxCell>
        <mxCell id="xOUELPZPSv9uPNJU-jqq-19" value="" style="endArrow=classic;html=1;rounded=0;exitX=0.5;exitY=1;exitDx=0;exitDy=0;entryX=0.417;entryY=0;entryDx=0;entryDy=0;entryPerimeter=0;" edge="1" parent="1" source="xOUELPZPSv9uPNJU-jqq-14" target="xOUELPZPSv9uPNJU-jqq-3">
          <mxGeometry width="50" height="50" relative="1" as="geometry">
            <mxPoint x="240" y="530" as="sourcePoint" />
            <mxPoint x="290.72" y="554.9799999999999" as="targetPoint" />
          </mxGeometry>
        </mxCell>
        <mxCell id="xOUELPZPSv9uPNJU-jqq-20" value="" style="endArrow=classic;html=1;rounded=0;exitX=0;exitY=1;exitDx=0;exitDy=0;entryX=0.75;entryY=0;entryDx=0;entryDy=0;" edge="1" parent="1" source="xOUELPZPSv9uPNJU-jqq-13" target="xOUELPZPSv9uPNJU-jqq-3">
          <mxGeometry width="50" height="50" relative="1" as="geometry">
            <mxPoint x="349.28" y="520" as="sourcePoint" />
            <mxPoint x="400" y="544.9799999999999" as="targetPoint" />
          </mxGeometry>
        </mxCell>
        <mxCell id="xOUELPZPSv9uPNJU-jqq-98" style="edgeStyle=orthogonalEdgeStyle;rounded=0;orthogonalLoop=1;jettySize=auto;html=1;exitX=1;exitY=0.5;exitDx=0;exitDy=0;entryX=0.101;entryY=-0.004;entryDx=0;entryDy=0;entryPerimeter=0;" edge="1" parent="1" source="xOUELPZPSv9uPNJU-jqq-21" target="xOUELPZPSv9uPNJU-jqq-4">
          <mxGeometry relative="1" as="geometry" />
        </mxCell>
        <mxCell id="xOUELPZPSv9uPNJU-jqq-21" value="user_name" style="ellipse;whiteSpace=wrap;html=1;" vertex="1" parent="1">
          <mxGeometry x="215" y="490" width="80" height="40" as="geometry" />
        </mxCell>
        <mxCell id="xOUELPZPSv9uPNJU-jqq-100" style="edgeStyle=orthogonalEdgeStyle;rounded=0;orthogonalLoop=1;jettySize=auto;html=1;exitX=0.5;exitY=1;exitDx=0;exitDy=0;entryX=0.5;entryY=0;entryDx=0;entryDy=0;" edge="1" parent="1" source="xOUELPZPSv9uPNJU-jqq-22" target="xOUELPZPSv9uPNJU-jqq-5">
          <mxGeometry relative="1" as="geometry" />
        </mxCell>
        <mxCell id="xOUELPZPSv9uPNJU-jqq-22" value="emp_designation" style="ellipse;whiteSpace=wrap;html=1;" vertex="1" parent="1">
          <mxGeometry x="650" y="520" width="100" height="40" as="geometry" />
        </mxCell>
        <mxCell id="xOUELPZPSv9uPNJU-jqq-101" style="edgeStyle=orthogonalEdgeStyle;rounded=0;orthogonalLoop=1;jettySize=auto;html=1;exitX=1;exitY=1;exitDx=0;exitDy=0;entryX=0.25;entryY=0;entryDx=0;entryDy=0;" edge="1" parent="1" source="xOUELPZPSv9uPNJU-jqq-23" target="xOUELPZPSv9uPNJU-jqq-5">
          <mxGeometry relative="1" as="geometry" />
        </mxCell>
        <mxCell id="xOUELPZPSv9uPNJU-jqq-23" value="emp_id" style="ellipse;whiteSpace=wrap;html=1;" vertex="1" parent="1">
          <mxGeometry x="570" y="520" width="50" height="40" as="geometry" />
        </mxCell>
        <mxCell id="xOUELPZPSv9uPNJU-jqq-96" style="edgeStyle=orthogonalEdgeStyle;rounded=0;orthogonalLoop=1;jettySize=auto;html=1;exitX=0.5;exitY=1;exitDx=0;exitDy=0;entryX=0.926;entryY=-0.004;entryDx=0;entryDy=0;entryPerimeter=0;" edge="1" parent="1" source="xOUELPZPSv9uPNJU-jqq-24" target="xOUELPZPSv9uPNJU-jqq-4">
          <mxGeometry relative="1" as="geometry" />
        </mxCell>
        <mxCell id="xOUELPZPSv9uPNJU-jqq-24" value="no.of residents" style="ellipse;whiteSpace=wrap;html=1;" vertex="1" parent="1">
          <mxGeometry x="460" y="520" width="70" height="40" as="geometry" />
        </mxCell>
        <mxCell id="xOUELPZPSv9uPNJU-jqq-95" style="edgeStyle=orthogonalEdgeStyle;rounded=0;orthogonalLoop=1;jettySize=auto;html=1;exitX=0;exitY=1;exitDx=0;exitDy=0;entryX=0.75;entryY=0;entryDx=0;entryDy=0;" edge="1" parent="1" source="xOUELPZPSv9uPNJU-jqq-25" target="xOUELPZPSv9uPNJU-jqq-4">
          <mxGeometry relative="1" as="geometry" />
        </mxCell>
        <mxCell id="xOUELPZPSv9uPNJU-jqq-25" value="user_adaar" style="ellipse;whiteSpace=wrap;html=1;" vertex="1" parent="1">
          <mxGeometry x="425" y="460" width="70" height="40" as="geometry" />
        </mxCell>
        <mxCell id="xOUELPZPSv9uPNJU-jqq-94" style="edgeStyle=orthogonalEdgeStyle;rounded=0;orthogonalLoop=1;jettySize=auto;html=1;exitX=1;exitY=0.5;exitDx=0;exitDy=0;" edge="1" parent="1" source="xOUELPZPSv9uPNJU-jqq-26" target="xOUELPZPSv9uPNJU-jqq-4">
          <mxGeometry relative="1" as="geometry" />
        </mxCell>
        <mxCell id="xOUELPZPSv9uPNJU-jqq-26" value="user_phone_num" style="ellipse;whiteSpace=wrap;html=1;" vertex="1" parent="1">
          <mxGeometry x="305" y="450" width="100" height="40" as="geometry" />
        </mxCell>
        <mxCell id="xOUELPZPSv9uPNJU-jqq-99" style="edgeStyle=orthogonalEdgeStyle;rounded=0;orthogonalLoop=1;jettySize=auto;html=1;exitX=1;exitY=1;exitDx=0;exitDy=0;" edge="1" parent="1" source="xOUELPZPSv9uPNJU-jqq-27">
          <mxGeometry relative="1" as="geometry">
            <mxPoint x="310" y="600" as="targetPoint" />
          </mxGeometry>
        </mxCell>
        <mxCell id="xOUELPZPSv9uPNJU-jqq-27" value="user_address" style="ellipse;whiteSpace=wrap;html=1;" vertex="1" parent="1">
          <mxGeometry x="180" y="540" width="80" height="40" as="geometry" />
        </mxCell>
        <mxCell id="xOUELPZPSv9uPNJU-jqq-97" style="edgeStyle=orthogonalEdgeStyle;rounded=0;orthogonalLoop=1;jettySize=auto;html=1;exitX=0.5;exitY=1;exitDx=0;exitDy=0;entryX=0.342;entryY=0.054;entryDx=0;entryDy=0;entryPerimeter=0;" edge="1" parent="1" source="xOUELPZPSv9uPNJU-jqq-29" target="xOUELPZPSv9uPNJU-jqq-4">
          <mxGeometry relative="1" as="geometry" />
        </mxCell>
        <mxCell id="xOUELPZPSv9uPNJU-jqq-29" value="user_id" style="ellipse;whiteSpace=wrap;html=1;" vertex="1" parent="1">
          <mxGeometry x="320" y="500" width="55" height="40" as="geometry" />
        </mxCell>
        <mxCell id="xOUELPZPSv9uPNJU-jqq-79" style="edgeStyle=orthogonalEdgeStyle;rounded=0;orthogonalLoop=1;jettySize=auto;html=1;exitX=0.5;exitY=0;exitDx=0;exitDy=0;entryX=0.25;entryY=1;entryDx=0;entryDy=0;" edge="1" parent="1" source="xOUELPZPSv9uPNJU-jqq-32" target="xOUELPZPSv9uPNJU-jqq-9">
          <mxGeometry relative="1" as="geometry" />
        </mxCell>
        <mxCell id="xOUELPZPSv9uPNJU-jqq-32" value="centre_id" style="ellipse;whiteSpace=wrap;html=1;" vertex="1" parent="1">
          <mxGeometry x="290" y="1130" width="70" height="40" as="geometry" />
        </mxCell>
        <mxCell id="xOUELPZPSv9uPNJU-jqq-70" style="edgeStyle=orthogonalEdgeStyle;rounded=0;orthogonalLoop=1;jettySize=auto;html=1;exitX=1;exitY=0;exitDx=0;exitDy=0;entryX=0.25;entryY=1;entryDx=0;entryDy=0;" edge="1" parent="1" source="xOUELPZPSv9uPNJU-jqq-33" target="xOUELPZPSv9uPNJU-jqq-6">
          <mxGeometry relative="1" as="geometry" />
        </mxCell>
        <mxCell id="xOUELPZPSv9uPNJU-jqq-33" value="inv_service.due" style="ellipse;whiteSpace=wrap;html=1;" vertex="1" parent="1">
          <mxGeometry x="-110" y="940" width="90" height="40" as="geometry" />
        </mxCell>
        <mxCell id="xOUELPZPSv9uPNJU-jqq-68" style="edgeStyle=orthogonalEdgeStyle;rounded=0;orthogonalLoop=1;jettySize=auto;html=1;exitX=1;exitY=1;exitDx=0;exitDy=0;entryX=0;entryY=0.25;entryDx=0;entryDy=0;" edge="1" parent="1" source="xOUELPZPSv9uPNJU-jqq-34" target="xOUELPZPSv9uPNJU-jqq-6">
          <mxGeometry relative="1" as="geometry" />
        </mxCell>
        <mxCell id="xOUELPZPSv9uPNJU-jqq-34" value="inv_buy.date" style="ellipse;whiteSpace=wrap;html=1;" vertex="1" parent="1">
          <mxGeometry x="-120" y="830" width="70" height="40" as="geometry" />
        </mxCell>
        <mxCell id="xOUELPZPSv9uPNJU-jqq-71" style="edgeStyle=orthogonalEdgeStyle;rounded=0;orthogonalLoop=1;jettySize=auto;html=1;exitX=1;exitY=1;exitDx=0;exitDy=0;entryX=0.25;entryY=0;entryDx=0;entryDy=0;" edge="1" parent="1" source="xOUELPZPSv9uPNJU-jqq-35" target="xOUELPZPSv9uPNJU-jqq-6">
          <mxGeometry relative="1" as="geometry" />
        </mxCell>
        <mxCell id="xOUELPZPSv9uPNJU-jqq-35" value="inv_id" style="ellipse;whiteSpace=wrap;html=1;" vertex="1" parent="1">
          <mxGeometry x="-100" y="770" width="70" height="40" as="geometry" />
        </mxCell>
        <mxCell id="xOUELPZPSv9uPNJU-jqq-69" style="edgeStyle=orthogonalEdgeStyle;rounded=0;orthogonalLoop=1;jettySize=auto;html=1;exitX=1;exitY=0.5;exitDx=0;exitDy=0;entryX=0;entryY=0.75;entryDx=0;entryDy=0;" edge="1" parent="1" source="xOUELPZPSv9uPNJU-jqq-36" target="xOUELPZPSv9uPNJU-jqq-6">
          <mxGeometry relative="1" as="geometry" />
        </mxCell>
        <mxCell id="xOUELPZPSv9uPNJU-jqq-36" value="inv_type" style="ellipse;whiteSpace=wrap;html=1;" vertex="1" parent="1">
          <mxGeometry x="-160" y="895" width="70" height="40" as="geometry" />
        </mxCell>
        <mxCell id="xOUELPZPSv9uPNJU-jqq-102" style="edgeStyle=orthogonalEdgeStyle;rounded=0;orthogonalLoop=1;jettySize=auto;html=1;exitX=0.5;exitY=1;exitDx=0;exitDy=0;entryX=1;entryY=0;entryDx=0;entryDy=0;" edge="1" parent="1" source="xOUELPZPSv9uPNJU-jqq-37" target="xOUELPZPSv9uPNJU-jqq-5">
          <mxGeometry relative="1" as="geometry" />
        </mxCell>
        <mxCell id="xOUELPZPSv9uPNJU-jqq-37" value="emp_phone.num" style="ellipse;whiteSpace=wrap;html=1;" vertex="1" parent="1">
          <mxGeometry x="710" y="470" width="100" height="40" as="geometry" />
        </mxCell>
        <mxCell id="xOUELPZPSv9uPNJU-jqq-103" style="edgeStyle=orthogonalEdgeStyle;rounded=0;orthogonalLoop=1;jettySize=auto;html=1;exitX=0;exitY=1;exitDx=0;exitDy=0;entryX=1;entryY=0.25;entryDx=0;entryDy=0;" edge="1" parent="1" source="xOUELPZPSv9uPNJU-jqq-38" target="xOUELPZPSv9uPNJU-jqq-5">
          <mxGeometry relative="1" as="geometry" />
        </mxCell>
        <mxCell id="xOUELPZPSv9uPNJU-jqq-38" value="emp_age" style="ellipse;whiteSpace=wrap;html=1;" vertex="1" parent="1">
          <mxGeometry x="820" y="570" width="70" height="40" as="geometry" />
        </mxCell>
        <mxCell id="xOUELPZPSv9uPNJU-jqq-105" style="edgeStyle=orthogonalEdgeStyle;rounded=0;orthogonalLoop=1;jettySize=auto;html=1;exitX=0;exitY=0.5;exitDx=0;exitDy=0;entryX=1;entryY=1;entryDx=0;entryDy=0;" edge="1" parent="1" source="xOUELPZPSv9uPNJU-jqq-39" target="xOUELPZPSv9uPNJU-jqq-5">
          <mxGeometry relative="1" as="geometry" />
        </mxCell>
        <mxCell id="xOUELPZPSv9uPNJU-jqq-39" value="reports_to" style="ellipse;whiteSpace=wrap;html=1;" vertex="1" parent="1">
          <mxGeometry x="820" y="620" width="70" height="40" as="geometry" />
        </mxCell>
        <mxCell id="xOUELPZPSv9uPNJU-jqq-104" style="edgeStyle=orthogonalEdgeStyle;rounded=0;orthogonalLoop=1;jettySize=auto;html=1;exitX=0;exitY=1;exitDx=0;exitDy=0;entryX=0.75;entryY=0;entryDx=0;entryDy=0;" edge="1" parent="1" source="xOUELPZPSv9uPNJU-jqq-40" target="xOUELPZPSv9uPNJU-jqq-5">
          <mxGeometry relative="1" as="geometry" />
        </mxCell>
        <mxCell id="xOUELPZPSv9uPNJU-jqq-40" value="employee_joindate" style="ellipse;whiteSpace=wrap;html=1;" vertex="1" parent="1">
          <mxGeometry x="820" y="520" width="110" height="40" as="geometry" />
        </mxCell>
        <mxCell id="xOUELPZPSv9uPNJU-jqq-76" style="edgeStyle=orthogonalEdgeStyle;rounded=0;orthogonalLoop=1;jettySize=auto;html=1;exitX=1;exitY=1;exitDx=0;exitDy=0;entryX=0;entryY=0.25;entryDx=0;entryDy=0;" edge="1" parent="1" source="xOUELPZPSv9uPNJU-jqq-41" target="xOUELPZPSv9uPNJU-jqq-7">
          <mxGeometry relative="1" as="geometry" />
        </mxCell>
        <mxCell id="xOUELPZPSv9uPNJU-jqq-41" value="sw_quality" style="ellipse;whiteSpace=wrap;html=1;" vertex="1" parent="1">
          <mxGeometry x="190" y="790" width="70" height="40" as="geometry" />
        </mxCell>
        <mxCell id="xOUELPZPSv9uPNJU-jqq-77" style="edgeStyle=orthogonalEdgeStyle;rounded=0;orthogonalLoop=1;jettySize=auto;html=1;exitX=0.5;exitY=1;exitDx=0;exitDy=0;entryX=0.178;entryY=-0.049;entryDx=0;entryDy=0;entryPerimeter=0;" edge="1" parent="1" source="xOUELPZPSv9uPNJU-jqq-42" target="xOUELPZPSv9uPNJU-jqq-7">
          <mxGeometry relative="1" as="geometry" />
        </mxCell>
        <mxCell id="xOUELPZPSv9uPNJU-jqq-42" value="sw_weight" style="ellipse;whiteSpace=wrap;html=1;" vertex="1" parent="1">
          <mxGeometry x="275" y="770" width="70" height="40" as="geometry" />
        </mxCell>
        <mxCell id="xOUELPZPSv9uPNJU-jqq-78" style="edgeStyle=orthogonalEdgeStyle;rounded=0;orthogonalLoop=1;jettySize=auto;html=1;exitX=0.5;exitY=1;exitDx=0;exitDy=0;entryX=0.75;entryY=0;entryDx=0;entryDy=0;" edge="1" parent="1" source="xOUELPZPSv9uPNJU-jqq-43" target="xOUELPZPSv9uPNJU-jqq-7">
          <mxGeometry relative="1" as="geometry" />
        </mxCell>
        <mxCell id="xOUELPZPSv9uPNJU-jqq-43" value="sw_type" style="ellipse;whiteSpace=wrap;html=1;" vertex="1" parent="1">
          <mxGeometry x="362.5" y="780" width="70" height="40" as="geometry" />
        </mxCell>
        <mxCell id="xOUELPZPSv9uPNJU-jqq-82" style="edgeStyle=orthogonalEdgeStyle;rounded=0;orthogonalLoop=1;jettySize=auto;html=1;exitX=0;exitY=0;exitDx=0;exitDy=0;entryX=1;entryY=0.75;entryDx=0;entryDy=0;" edge="1" parent="1" source="xOUELPZPSv9uPNJU-jqq-45" target="xOUELPZPSv9uPNJU-jqq-9">
          <mxGeometry relative="1" as="geometry" />
        </mxCell>
        <mxCell id="xOUELPZPSv9uPNJU-jqq-45" value="centre_capacity" style="ellipse;whiteSpace=wrap;html=1;" vertex="1" parent="1">
          <mxGeometry x="500" y="1130" width="90" height="40" as="geometry" />
        </mxCell>
        <mxCell id="xOUELPZPSv9uPNJU-jqq-81" style="edgeStyle=orthogonalEdgeStyle;rounded=0;orthogonalLoop=1;jettySize=auto;html=1;exitX=0;exitY=0.5;exitDx=0;exitDy=0;entryX=0.5;entryY=1;entryDx=0;entryDy=0;" edge="1" parent="1" source="xOUELPZPSv9uPNJU-jqq-46" target="xOUELPZPSv9uPNJU-jqq-9">
          <mxGeometry relative="1" as="geometry" />
        </mxCell>
        <mxCell id="xOUELPZPSv9uPNJU-jqq-46" value="centre_addr" style="ellipse;whiteSpace=wrap;html=1;" vertex="1" parent="1">
          <mxGeometry x="400" y="1120" width="70" height="40" as="geometry" />
        </mxCell>
        <mxCell id="xOUELPZPSv9uPNJU-jqq-64" style="edgeStyle=orthogonalEdgeStyle;rounded=0;orthogonalLoop=1;jettySize=auto;html=1;exitX=0.5;exitY=0;exitDx=0;exitDy=0;entryX=0.75;entryY=1;entryDx=0;entryDy=0;" edge="1" parent="1" source="xOUELPZPSv9uPNJU-jqq-51" target="xOUELPZPSv9uPNJU-jqq-10">
          <mxGeometry relative="1" as="geometry" />
        </mxCell>
        <mxCell id="xOUELPZPSv9uPNJU-jqq-51" value="project_id" style="ellipse;whiteSpace=wrap;html=1;" vertex="1" parent="1">
          <mxGeometry x="5" y="1160" width="75" height="40" as="geometry" />
        </mxCell>
        <mxCell id="xOUELPZPSv9uPNJU-jqq-63" style="edgeStyle=orthogonalEdgeStyle;rounded=0;orthogonalLoop=1;jettySize=auto;html=1;exitX=0.5;exitY=0;exitDx=0;exitDy=0;entryX=0.25;entryY=1;entryDx=0;entryDy=0;" edge="1" parent="1" source="xOUELPZPSv9uPNJU-jqq-52" target="xOUELPZPSv9uPNJU-jqq-10">
          <mxGeometry relative="1" as="geometry" />
        </mxCell>
        <mxCell id="xOUELPZPSv9uPNJU-jqq-52" value="project_status" style="ellipse;whiteSpace=wrap;html=1;" vertex="1" parent="1">
          <mxGeometry x="-70" y="1190" width="75" height="40" as="geometry" />
        </mxCell>
        <mxCell id="xOUELPZPSv9uPNJU-jqq-110" style="edgeStyle=orthogonalEdgeStyle;rounded=0;orthogonalLoop=1;jettySize=auto;html=1;exitX=0;exitY=0;exitDx=0;exitDy=0;entryX=1;entryY=1;entryDx=0;entryDy=0;" edge="1" parent="1" source="xOUELPZPSv9uPNJU-jqq-53" target="xOUELPZPSv9uPNJU-jqq-11">
          <mxGeometry relative="1" as="geometry" />
        </mxCell>
        <mxCell id="xOUELPZPSv9uPNJU-jqq-53" value="fine_id" style="ellipse;whiteSpace=wrap;html=1;" vertex="1" parent="1">
          <mxGeometry x="790" y="910" width="70" height="40" as="geometry" />
        </mxCell>
        <mxCell id="xOUELPZPSv9uPNJU-jqq-108" style="edgeStyle=orthogonalEdgeStyle;rounded=0;orthogonalLoop=1;jettySize=auto;html=1;exitX=0;exitY=1;exitDx=0;exitDy=0;entryX=1;entryY=0;entryDx=0;entryDy=0;" edge="1" parent="1" source="xOUELPZPSv9uPNJU-jqq-54" target="xOUELPZPSv9uPNJU-jqq-11">
          <mxGeometry relative="1" as="geometry" />
        </mxCell>
        <mxCell id="xOUELPZPSv9uPNJU-jqq-54" value="reason_" style="ellipse;whiteSpace=wrap;html=1;" vertex="1" parent="1">
          <mxGeometry x="760" y="800" width="70" height="40" as="geometry" />
        </mxCell>
        <mxCell id="xOUELPZPSv9uPNJU-jqq-109" style="edgeStyle=orthogonalEdgeStyle;rounded=0;orthogonalLoop=1;jettySize=auto;html=1;exitX=0;exitY=0.5;exitDx=0;exitDy=0;entryX=1;entryY=0.25;entryDx=0;entryDy=0;" edge="1" parent="1" source="xOUELPZPSv9uPNJU-jqq-55" target="xOUELPZPSv9uPNJU-jqq-11">
          <mxGeometry relative="1" as="geometry" />
        </mxCell>
        <mxCell id="xOUELPZPSv9uPNJU-jqq-55" value="amount_levied" style="ellipse;whiteSpace=wrap;html=1;" vertex="1" parent="1">
          <mxGeometry x="770" y="850" width="100" height="40" as="geometry" />
        </mxCell>
        <mxCell id="xOUELPZPSv9uPNJU-jqq-62" style="edgeStyle=orthogonalEdgeStyle;rounded=0;orthogonalLoop=1;jettySize=auto;html=1;entryX=0;entryY=1;entryDx=0;entryDy=0;" edge="1" parent="1" source="xOUELPZPSv9uPNJU-jqq-56" target="xOUELPZPSv9uPNJU-jqq-10">
          <mxGeometry relative="1" as="geometry" />
        </mxCell>
        <mxCell id="xOUELPZPSv9uPNJU-jqq-56" value="project_location" style="ellipse;whiteSpace=wrap;html=1;" vertex="1" parent="1">
          <mxGeometry x="-175" y="1160" width="100" height="40" as="geometry" />
        </mxCell>
        <mxCell id="xOUELPZPSv9uPNJU-jqq-65" style="edgeStyle=orthogonalEdgeStyle;rounded=0;orthogonalLoop=1;jettySize=auto;html=1;exitX=0.5;exitY=0;exitDx=0;exitDy=0;entryX=1;entryY=0.5;entryDx=0;entryDy=0;" edge="1" parent="1" source="xOUELPZPSv9uPNJU-jqq-57" target="xOUELPZPSv9uPNJU-jqq-10">
          <mxGeometry relative="1" as="geometry" />
        </mxCell>
        <mxCell id="xOUELPZPSv9uPNJU-jqq-57" value="project_end&lt;br&gt;date" style="ellipse;whiteSpace=wrap;html=1;" vertex="1" parent="1">
          <mxGeometry x="70" y="1130" width="70" height="40" as="geometry" />
        </mxCell>
        <mxCell id="xOUELPZPSv9uPNJU-jqq-67" style="edgeStyle=orthogonalEdgeStyle;rounded=0;orthogonalLoop=1;jettySize=auto;html=1;exitX=1;exitY=0.5;exitDx=0;exitDy=0;" edge="1" parent="1" source="xOUELPZPSv9uPNJU-jqq-58">
          <mxGeometry relative="1" as="geometry">
            <mxPoint x="-50" y="1100" as="targetPoint" />
          </mxGeometry>
        </mxCell>
        <mxCell id="xOUELPZPSv9uPNJU-jqq-58" value="project_start&lt;br&gt;date" style="ellipse;whiteSpace=wrap;html=1;" vertex="1" parent="1">
          <mxGeometry x="-160" y="1090" width="90" height="40" as="geometry" />
        </mxCell>
        <mxCell id="xOUELPZPSv9uPNJU-jqq-91" style="edgeStyle=orthogonalEdgeStyle;rounded=0;orthogonalLoop=1;jettySize=auto;html=1;exitX=0.5;exitY=1;exitDx=0;exitDy=0;entryX=1;entryY=0.25;entryDx=0;entryDy=0;" edge="1" parent="1" source="xOUELPZPSv9uPNJU-jqq-60" target="xOUELPZPSv9uPNJU-jqq-8">
          <mxGeometry relative="1" as="geometry" />
        </mxCell>
        <mxCell id="xOUELPZPSv9uPNJU-jqq-60" value="feedback_rated" style="ellipse;whiteSpace=wrap;html=1;" vertex="1" parent="1">
          <mxGeometry x="790" y="1020" width="85" height="40" as="geometry" />
        </mxCell>
        <mxCell id="xOUELPZPSv9uPNJU-jqq-90" style="edgeStyle=orthogonalEdgeStyle;rounded=0;orthogonalLoop=1;jettySize=auto;html=1;exitX=0;exitY=0.5;exitDx=0;exitDy=0;entryX=1;entryY=1;entryDx=0;entryDy=0;" edge="1" parent="1" source="xOUELPZPSv9uPNJU-jqq-61" target="xOUELPZPSv9uPNJU-jqq-8">
          <mxGeometry relative="1" as="geometry" />
        </mxCell>
        <mxCell id="xOUELPZPSv9uPNJU-jqq-61" value="feedback_id" style="ellipse;whiteSpace=wrap;html=1;" vertex="1" parent="1">
          <mxGeometry x="805" y="1090" width="70" height="40" as="geometry" />
        </mxCell>
        <mxCell id="xOUELPZPSv9uPNJU-jqq-89" style="edgeStyle=orthogonalEdgeStyle;rounded=0;orthogonalLoop=1;jettySize=auto;html=1;exitX=0;exitY=0;exitDx=0;exitDy=0;entryX=0.75;entryY=1;entryDx=0;entryDy=0;" edge="1" parent="1" source="xOUELPZPSv9uPNJU-jqq-87" target="xOUELPZPSv9uPNJU-jqq-8">
          <mxGeometry relative="1" as="geometry" />
        </mxCell>
        <mxCell id="xOUELPZPSv9uPNJU-jqq-87" value="emp_feedback&lt;span style=&quot;color: rgba(0, 0, 0, 0); font-family: monospace; font-size: 0px; text-align: start;&quot;&gt;%3CmxGraphModel%3E%3Croot%3E%3CmxCell%20id%3D%220%22%2F%3E%3CmxCell%20id%3D%221%22%20parent%3D%220%22%2F%3E%3CmxCell%20id%3D%222%22%20value%3D%22%22%20style%3D%22ellipse%3BwhiteSpace%3Dwrap%3Bhtml%3D1%3B%22%20vertex%3D%221%22%20parent%3D%221%22%3E%3CmxGeometry%20x%3D%22180%22%20y%3D%22940%22%20width%3D%2270%22%20height%3D%2240%22%20as%3D%22geometry%22%2F%3E%3C%2FmxCell%3E%3C%2Froot%3E%3C%2FmxGraphModel%3E&lt;/span&gt;" style="ellipse;whiteSpace=wrap;html=1;" vertex="1" parent="1">
          <mxGeometry x="770" y="1160" width="100" height="30" as="geometry" />
        </mxCell>
        <mxCell id="xOUELPZPSv9uPNJU-jqq-92" style="edgeStyle=orthogonalEdgeStyle;rounded=0;orthogonalLoop=1;jettySize=auto;html=1;exitX=0;exitY=0;exitDx=0;exitDy=0;" edge="1" parent="1" source="xOUELPZPSv9uPNJU-jqq-88" target="xOUELPZPSv9uPNJU-jqq-8">
          <mxGeometry relative="1" as="geometry" />
        </mxCell>
        <mxCell id="xOUELPZPSv9uPNJU-jqq-88" value="user_feedback" style="ellipse;whiteSpace=wrap;html=1;" vertex="1" parent="1">
          <mxGeometry x="730" y="1210" width="90" height="30" as="geometry" />
        </mxCell>
      </root>
    </mxGraphModel>
  </diagram>
</mxfile>
